<svg xmlns="http://www.w3.org/2000/svg" xmlns:xlink="http://www.w3.org/1999/xlink" preserveAspectRatio="xMidYMid" width="27" height="26.969" viewBox="0 0 27 26.969">
  <defs>
    <style>
      .cls-1 {
        fill: #3c3c3c;
        fill-rule: evenodd;
      }
    </style>
  </defs>
  <path d="M5.477,17.229 C5.200,16.952 4.749,16.952 4.471,17.229 C4.194,17.507 4.194,17.956 4.471,18.233 L12.997,26.761 C13.137,26.901 13.317,26.969 13.500,26.969 C13.682,26.969 13.863,26.898 14.002,26.761 C14.279,26.484 14.279,26.035 14.002,25.757 L5.477,17.229 ZM26.288,12.758 L2.427,12.758 L14.002,1.178 C14.279,0.901 14.279,0.452 14.002,0.174 C13.725,-0.103 13.274,-0.103 12.997,0.174 L0.209,12.966 C0.006,13.169 -0.055,13.476 0.055,13.740 C0.166,14.006 0.425,14.177 0.711,14.177 L26.290,14.177 C26.682,14.177 27.000,13.859 27.000,13.467 C26.998,13.076 26.680,12.758 26.288,12.758 Z" class="cls-1"/>
</svg>
