<svg xmlns="http://www.w3.org/2000/svg" xmlns:xlink="http://www.w3.org/1999/xlink" preserveAspectRatio="xMidYMid" width="39" height="34" viewBox="0 0 39 34">
  <defs>
    <style>
      .cls-1 {
        fill: #ffa760;
        fill-rule: evenodd;
      }
    </style>
  </defs>
  <path d="M39.000,24.811 L39.000,29.865 C39.000,32.162 37.142,34.000 34.821,34.000 L10.214,34.000 L10.214,0.000 L34.821,0.000 C37.142,0.000 39.000,1.838 39.000,4.135 L39.000,9.189 C37.421,9.189 36.214,10.384 36.214,11.946 C36.214,13.508 37.421,14.703 39.000,14.703 L39.000,19.297 C37.421,19.297 36.214,20.492 36.214,22.054 C36.214,23.616 37.421,24.811 39.000,24.811 ZM29.710,16.692 L29.710,15.250 L21.512,15.250 C21.783,14.759 22.037,14.256 22.274,13.742 L28.779,13.742 L28.779,12.334 L26.407,12.334 C26.893,11.708 27.316,10.965 27.678,10.104 L26.339,9.635 C26.001,10.496 25.571,11.261 25.052,11.932 L25.797,12.334 L22.799,12.334 C23.047,11.552 23.257,10.702 23.426,9.786 L21.834,9.585 C21.687,10.535 21.467,11.451 21.173,12.334 L18.920,12.334 L19.801,11.932 C19.473,11.160 19.084,10.417 18.632,9.702 L17.243,10.155 C17.695,10.870 18.090,11.596 18.429,12.334 L15.973,12.334 L15.973,13.742 L20.597,13.742 C20.349,14.256 20.061,14.759 19.733,15.251 L15.041,15.251 L15.041,16.692 L18.564,16.692 C17.469,17.832 16.108,18.743 14.482,19.424 L15.363,20.765 C16.300,20.318 17.175,19.793 17.989,19.190 L17.989,20.061 L20.106,20.061 C19.812,20.944 19.417,21.648 18.920,22.173 C18.231,22.833 17.254,23.436 15.990,23.984 L17.006,25.241 C18.452,24.548 19.535,23.771 20.258,22.911 C20.823,22.196 21.275,21.246 21.613,20.061 L25.442,20.061 C25.374,21.525 25.232,22.509 25.018,23.012 C24.815,23.459 24.397,23.682 23.765,23.682 C23.324,23.682 22.539,23.659 21.410,23.615 L21.834,25.107 L24.544,25.107 C25.221,25.073 25.724,24.866 26.051,24.487 C26.379,24.095 26.611,23.420 26.746,22.458 C26.859,21.509 26.938,20.408 26.983,19.156 C27.627,19.670 28.372,20.173 29.219,20.665 L30.269,19.374 C28.496,18.558 27.197,17.664 26.373,16.692 L29.710,16.692 ZM20.529,16.692 L24.696,16.692 C25.114,17.340 25.656,17.972 26.322,18.586 L18.734,18.586 C19.400,17.994 19.998,17.363 20.529,16.692 ZM0.000,29.865 L0.000,4.135 C0.000,1.838 1.857,0.000 4.179,0.000 L7.429,0.000 L7.429,4.135 L7.429,29.865 L7.429,34.000 L4.179,34.000 C1.857,34.000 0.000,32.162 0.000,29.865 Z" class="cls-1"/>
</svg>
