<svg xmlns="http://www.w3.org/2000/svg" xmlns:xlink="http://www.w3.org/1999/xlink" preserveAspectRatio="xMidYMid" width="49" height="54" viewBox="0 0 49 54">
  <defs>
    <style>
      .cls-1 {
        fill: #d7ba55;
        fill-rule: evenodd;
      }
    </style>
  </defs>
  <path d="M44.444,0.000 L49.000,0.000 L36.619,21.736 C40.034,25.150 42.157,29.928 42.157,35.218 C42.157,45.590 33.996,54.000 23.930,54.000 C13.864,54.000 5.703,45.590 5.703,35.218 C5.703,29.555 8.135,24.478 11.981,21.034 L-0.001,0.000 L4.556,0.000 L15.217,18.716 C15.534,18.538 15.856,18.371 16.184,18.212 L5.810,0.000 L13.784,0.000 L23.156,16.452 C23.413,16.441 23.671,16.434 23.930,16.434 C24.592,16.434 25.246,16.472 25.889,16.543 C25.859,16.540 25.829,16.535 25.798,16.532 L35.215,0.000 L43.189,0.000 L32.555,18.668 C32.874,18.844 33.186,19.031 33.492,19.226 L44.444,0.000 ZM23.930,18.782 C15.122,18.782 7.982,26.140 7.982,35.218 C7.982,44.294 15.122,51.652 23.930,51.652 C32.739,51.652 39.878,44.294 39.878,35.218 C39.878,26.140 32.739,18.782 23.930,18.782 ZM23.930,49.304 C16.380,49.304 10.260,42.997 10.260,35.218 C10.260,27.437 16.380,21.130 23.930,21.130 C31.479,21.130 37.600,27.437 37.600,35.218 C37.600,42.997 31.479,49.304 23.930,49.304 ZM25.523,26.730 L23.656,26.730 C23.109,27.340 22.426,27.880 21.607,28.397 C20.787,28.867 20.035,29.194 19.307,29.382 L19.307,31.918 C20.810,31.473 22.062,30.767 23.041,29.807 L23.041,43.492 L25.523,43.492 L25.523,26.730 Z" class="cls-1"/>
</svg>
