<svg xmlns="http://www.w3.org/2000/svg" width="36" height="36" viewBox="0 0 36 36">
  <metadata><?xpacket begin="﻿" id="W5M0MpCehiHzreSzNTczkc9d"?>
<x:xmpmeta xmlns:x="adobe:ns:meta/" x:xmptk="Adobe XMP Core 5.6-c138 79.159824, 2016/09/14-01:09:01        ">
   <rdf:RDF xmlns:rdf="http://www.w3.org/1999/02/22-rdf-syntax-ns#">
      <rdf:Description rdf:about=""/>
   </rdf:RDF>
</x:xmpmeta>
                                                                                                    
                                                                                                    
                                                                                                    
                                                                                                    
                                                                                                    
                                                                                                    
                                                                                                    
                                                                                                    
                                                                                                    
                                                                                                    
                                                                                                    
                                                                                                    
                                                                                                    
                                                                                                    
                                                                                                    
                                                                                                    
                                                                                                    
                                                                                                    
                                                                                                    
                                                                                                    
                           
<?xpacket end="w"?></metadata>
<defs>
    <style>
      .cls-1 {
        fill: #fff;
        fill-rule: evenodd;
      }
    </style>
  </defs>
  <path id="形状_4" data-name="形状 4" class="cls-1" d="M14.807,6.8a0.824,0.824,0,0,0-1.018.184L10.92,11.3,8.144,6.979A0.66,0.66,0,0,0,7.126,6.8a0.65,0.65,0,0,0-.185,1.01l2.684,4.133H7.589a0.735,0.735,0,1,0,0,1.47h2.684v2.112H7.589a0.735,0.735,0,1,0,0,1.469h2.684v2.847a0.74,0.74,0,0,0,1.481,0V16.99h2.684a0.735,0.735,0,1,0,0-1.469H11.753V13.408h2.684a0.735,0.735,0,1,0,0-1.469H12.309l2.684-4.133a0.649,0.649,0,0,0-.185-1.01h0ZM35.075,20.939a10.969,10.969,0,0,0-2.314-3.49,10.669,10.669,0,0,0-3.424-2.3,10.905,10.905,0,0,0-8.329,0,10.67,10.67,0,0,0-3.424,2.3,10.038,10.038,0,0,0-2.314,3.49,11.13,11.13,0,0,0,0,8.449,10.965,10.965,0,0,0,2.314,3.49,10.673,10.673,0,0,0,3.424,2.3,10.905,10.905,0,0,0,8.329,0,0.09,0.09,0,0,0,.093-0.092A12.938,12.938,0,0,0,31,34.256a2.012,2.012,0,0,0,.463-0.367,0.59,0.59,0,1,0-.74-0.918c-0.092.092-.277,0.184-0.37,0.275a9.114,9.114,0,0,1-3.979,1.469,5.307,5.307,0,0,1-1.2.092,9.579,9.579,0,0,1-6.756-2.847,9.4,9.4,0,0,1-2.776-6.8,9.784,9.784,0,0,1,2.776-6.8,9.264,9.264,0,0,1,6.756-2.847,9.578,9.578,0,0,1,6.756,2.847,9.786,9.786,0,0,1,2.776,6.8,13.631,13.631,0,0,1-.185,2.02v0.092a5.8,5.8,0,0,1-.555,1.653v0.092c-0.093.092-.093,0.275-0.185,0.367a0.628,0.628,0,0,0,.278.826,0.342,0.342,0,0,0,.278.092,0.576,0.576,0,0,0,.555-0.367,8.067,8.067,0,0,0,.833-2.48A9.931,9.931,0,0,0,36,25.072a13.319,13.319,0,0,0-.925-4.133h0ZM11.106,23.97H6.848a0.827,0.827,0,1,0,0,1.653h4.257A0.827,0.827,0,1,0,11.106,23.97ZM19.8,8.541a0.827,0.827,0,1,0,0,1.653h4.257a0.827,0.827,0,1,0,0-1.653H19.8ZM13.6,31.225H9.625a0.342,0.342,0,0,0-.278.092H3.7a1.653,1.653,0,0,1-1.666-1.653V3.765A1.653,1.653,0,0,1,3.7,2.112H27.208a1.652,1.652,0,0,1,1.666,1.653v9.919a1.121,1.121,0,0,0,1.111,1.1,1.18,1.18,0,0,0,1.11-1.01V3.765A3.8,3.8,0,0,0,27.3,0H3.794A3.8,3.8,0,0,0,0,3.765V29.572a3.8,3.8,0,0,0,3.794,3.765l6.478-.092H13.7a1.121,1.121,0,0,0,1.111-1.1,1.012,1.012,0,0,0-1.2-.918h0Zm5.738-8.633H18.6v1.653l0.926,0.643-0.185.827-0.74-.459v3.122H17.769V22.592H16.1V21.858h1.666V21.031H18.6v0.827h0.74v0.735h0ZM16.01,27.919l0.278-4.776L16.936,23.6l-0.37,4.776Zm3.7-.276,2.869-5.051,0.463,0.735-2.869,5.051Zm2.591-6.8,0.185,0.643h1.573v0.735H21.378l-0.555,1.929h1.2v0.735H19.712l0.833-2.663H19.8V21.49H21.47l-0.092-.459,0.925-.184h0Zm-0.277,7.531-0.37-.826,1.943-3.49,0.37,0.827Zm0.648-1.561,0.463-.826,1.018,1.653-0.463.826ZM25.82,23.97l-0.648-.459,0.648-2.663,0.74,0.459Zm0,0.735V23.235h1.573V23.97H26.746V24.7h1.018v0.826H26.746v1.837H25.82V25.531H25.265V24.7H25.82Zm-0.555,2.939,2.036-1.1,0.185,0.735-2.036,1.1Zm0.648-5.051V21.858h1.851v0.735H25.913Zm3.424-.184,0.648-.367-1.2-1.1-0.648.367Zm1.851,0.276h1.944v5.694H31.465V27.552H32.3V26.817H29.244V28.47H28.319V22.776h2.036V21.031H31.28v1.653H31.188Zm-2.036,1.653h3.054V23.511H29.152v0.826Zm0,1.653h3.054V25.164H29.152V25.99Zm2.962-3.582-0.648-.367,1.2-1.1,0.648,0.367-1.2,1.1h0Z"/>
</svg>
