<?xml version="1.0" standalone="no"?><!DOCTYPE svg PUBLIC "-//W3C//DTD SVG 1.1//EN" "http://www.w3.org/Graphics/SVG/1.1/DTD/svg11.dtd"><svg width="200" height="200" viewBox="0 0 200 200" version="1.1" xmlns="http://www.w3.org/2000/svg" xmlns:xlink="http://www.w3.org/1999/xlink"><defs><style type="text/css"><![CDATA[
@font-face { font-family: ifont; src: url("http://at.alicdn.com/t/font_1442373896_4754455.eot?#iefix") format("embedded-opentype"), url("http://at.alicdn.com/t/font_1442373896_4754455.woff") format("woff"), url("http://at.alicdn.com/t/font_1442373896_4754455.ttf") format("truetype"), url("http://at.alicdn.com/t/font_1442373896_4754455.svg#ifont") format("svg"); }

]]></style></defs><g class="transform-group"><g transform="scale(0.1953125, 0.1953125)"><path d="M905.381 524.685c-1.013-53.023-12.516-105.88-33.763-154.211-21.176-48.374-51.912-92.195-89.643-128.405-37.71-36.237-82.43-64.884-130.835-83.783-48.378-18.972-100.394-28.035-151.782-26.937-51.395 1.017-102.562 12.192-149.352 32.795-46.826 20.536-89.247 50.334-124.293 86.895-35.07 36.543-62.774 79.863-81.035 126.723-18.33 46.837-27.064 97.16-25.969 146.921 1.02 49.77 11.867 99.245 31.827 144.494 19.895 45.279 48.752 86.302 84.147 120.179 35.376 33.904 77.297 60.669 122.611 78.287 45.295 17.687 93.928 26.09 142.062 25.001 48.141-1.023 95.923-11.544 139.631-30.86 43.734-19.256 83.358-47.169 116.07-81.399 32.737-34.211 58.559-74.73 75.537-118.501 10.337-26.532 17.352-54.24 21.049-82.313 0.988 0.056 1.982 0.095 2.983 0.095 28.028 0 50.752-22.721 50.752-50.752 0-1.424-0.074-2.833-0.188-4.229l0.19 0L905.38 524.685zM824.737 659.458c-18.614 42.189-45.587 80.411-78.65 111.958-33.046 31.569-72.164 56.45-114.387 72.79-42.21 16.398-87.463 24.148-132.342 23.062-44.888-1.03-89.29-10.893-129.912-28.924-40.642-17.974-77.464-44.005-107.846-75.902-30.402-31.877-54.344-69.597-70.04-110.275-15.757-40.668-23.179-84.229-22.097-127.483 1.033-43.26 10.569-85.972 27.957-125.05 17.334-39.097 42.424-74.52 73.152-103.734 30.714-29.237 67.034-52.236 106.164-67.292 39.126-15.115 80.995-22.21 122.621-21.13 41.634 1.036 82.655 10.244 120.191 26.99 37.551 16.693 71.575 40.842 99.621 70.406 28.069 29.545 50.127 64.467 64.544 102.05 14.471 37.583 21.238 77.762 20.163 117.759l0.188 0c-0.115 1.396-0.188 2.805-0.188 4.229 0 26.178 19.818 47.717 45.269 50.455C844.209 606.983 836.038 633.942 824.737 659.458z" fill="#272636"></path></g></g></svg>