<svg xmlns="http://www.w3.org/2000/svg" xmlns:xlink="http://www.w3.org/1999/xlink" preserveAspectRatio="xMidYMid" width="32" height="24" viewBox="0 0 32 24">
  <defs>
    <style>
      .cls-1 {
        fill: #797979;
        fill-rule: evenodd;
      }
    </style>
  </defs>
  <path d="M30.948,11.027 C30.224,5.380 23.640,1.007 15.912,1.072 C8.067,1.138 1.679,5.414 1.052,11.018 L-0.000,10.898 C0.686,4.756 7.523,0.072 15.903,0.002 C24.153,-0.087 31.206,4.716 31.999,10.889 L30.948,11.027 ZM15.926,24.000 C7.764,24.000 0.787,19.242 0.001,13.111 L1.051,12.973 C1.770,18.579 8.286,22.930 15.924,22.930 C15.980,22.930 16.035,22.930 16.091,22.929 C23.936,22.863 30.322,18.587 30.947,12.982 L32.000,13.103 C31.315,19.245 24.480,23.929 16.099,24.000 C16.042,24.000 15.983,24.000 15.926,24.000 ZM15.999,19.831 C11.761,19.831 8.285,16.348 8.250,12.066 C8.214,7.749 11.663,4.206 15.937,4.170 L16.000,4.170 C20.240,4.170 23.716,7.654 23.751,11.937 C23.786,16.253 20.339,19.794 16.065,19.831 L15.999,19.831 ZM16.000,5.240 L15.945,5.240 C12.256,5.271 9.279,8.329 9.309,12.057 C9.340,15.753 12.341,18.760 15.999,18.760 L16.055,18.760 C19.745,18.728 22.721,15.671 22.690,11.945 C22.661,8.248 19.660,5.240 16.000,5.240 ZM12.375,12.031 C12.359,10.012 13.972,8.356 15.971,8.339 L15.979,9.409 C14.565,9.421 13.423,10.593 13.435,12.022 L12.375,12.031 Z" class="cls-1"/>
</svg>
