<svg xmlns="http://www.w3.org/2000/svg" xmlns:xlink="http://www.w3.org/1999/xlink" preserveAspectRatio="xMidYMid" width="28" height="28" viewBox="0 0 28 28">
  <defs>
    <style>
      .cls-1 {
        fill: #ff4a83;
        fill-rule: evenodd;
      }
    </style>
  </defs>
  <path d="M25.564,15.773 L15.880,25.240 C15.388,25.722 14.702,25.999 14.000,25.999 C13.298,25.999 12.612,25.722 12.120,25.239 L2.433,15.769 C0.865,14.247 0.000,12.221 0.000,10.069 C0.000,7.914 0.867,5.886 2.439,4.363 C4.010,2.839 6.101,1.999 8.326,1.999 C10.449,1.999 12.276,2.763 13.909,4.335 C13.933,4.355 13.955,4.376 13.976,4.399 L13.982,4.393 C15.664,2.754 17.501,1.999 19.677,1.999 C21.902,1.999 23.990,2.839 25.561,4.363 C27.134,5.886 28.000,7.914 28.000,10.069 C28.000,12.223 27.135,14.247 25.564,15.773 ZM24.113,5.767 C22.928,4.619 21.353,3.985 19.677,3.985 C18.049,3.985 16.725,4.534 15.510,5.711 L14.803,6.585 C14.611,6.817 14.322,6.954 14.015,6.959 C13.722,6.976 13.416,6.835 13.217,6.607 L12.435,5.707 C11.236,4.552 9.913,3.985 8.326,3.985 C6.648,3.985 5.072,4.619 3.887,5.767 C2.703,6.916 2.050,8.443 2.050,10.069 C2.050,11.692 2.701,13.218 3.885,14.369 L13.577,23.841 C13.801,24.062 14.201,24.059 14.423,23.842 L24.113,14.371 C25.300,13.219 25.950,11.692 25.950,10.069 C25.950,8.443 25.299,6.916 24.113,5.767 ZM24.279,11.459 C24.148,11.661 23.929,11.793 23.682,11.793 C23.506,11.793 23.344,11.727 23.218,11.616 C23.057,11.474 22.958,10.829 22.958,10.829 C22.694,9.876 22.374,9.013 21.727,8.340 C21.306,7.903 20.707,7.392 20.136,7.096 C19.842,6.944 18.966,6.751 18.824,6.595 C18.689,6.446 18.607,6.244 18.607,6.021 C18.607,5.833 18.667,5.662 18.768,5.525 C18.895,5.352 19.087,5.236 19.305,5.211 C19.308,5.209 19.371,5.209 19.465,5.215 C19.550,5.221 19.800,5.283 20.081,5.362 C20.484,5.474 22.094,6.302 22.608,6.941 C23.242,7.730 23.837,8.315 24.207,9.532 C24.329,9.937 24.393,10.445 24.393,10.899 C24.393,10.899 24.361,11.335 24.279,11.459 ZM20.276,13.040 C20.276,13.835 19.627,14.480 18.828,14.480 C18.028,14.480 17.379,13.835 17.379,13.040 C17.379,12.245 18.028,11.600 18.828,11.600 C19.627,11.600 20.276,12.245 20.276,13.040 ZM14.000,14.480 C13.200,14.480 12.552,13.835 12.552,13.040 C12.552,12.245 13.200,11.600 14.000,11.600 C14.800,11.600 15.448,12.245 15.448,13.040 C15.448,13.835 14.800,14.480 14.000,14.480 ZM9.172,14.480 C8.373,14.480 7.724,13.835 7.724,13.040 C7.724,12.245 8.373,11.600 9.172,11.600 C9.972,11.600 10.621,12.245 10.621,13.040 C10.621,13.835 9.972,14.480 9.172,14.480 Z" class="cls-1"/>
</svg>
