<svg xmlns="http://www.w3.org/2000/svg" xmlns:xlink="http://www.w3.org/1999/xlink" preserveAspectRatio="xMidYMid" width="128" height="173" viewBox="0 0 128 173">
  <defs>
    <style>
      .cls-1, .cls-3 {
        fill: #d0d0d0;
      }

      .cls-1 {
        fill-rule: evenodd;
      }

      .cls-2, .cls-3 {
        font-size: 21.336px;
      }

      .cls-3 {
        font-family: "Microsoft YaHei";
      }
    </style>
  </defs>
  <g>
    <path d="M124.443,73.906 C123.199,69.030 120.279,65.453 115.848,63.113 C114.142,62.212 112.355,61.462 110.627,60.601 C109.821,60.199 109.064,59.702 108.292,59.235 C108.125,59.134 107.991,58.977 107.757,58.771 C111.518,58.259 114.801,56.877 117.733,54.649 C117.534,54.742 117.336,54.832 117.139,54.926 C114.713,56.093 112.271,57.220 109.576,57.633 C108.913,57.734 108.235,57.735 107.569,57.821 C106.962,57.899 106.655,57.613 106.419,57.093 C105.542,55.161 105.698,53.206 106.267,51.249 C106.489,50.486 106.793,49.745 107.085,49.004 C110.801,39.592 107.655,30.339 98.969,25.129 C96.833,23.847 94.571,22.835 92.197,22.100 C89.556,21.281 87.393,19.780 85.696,17.644 C84.313,15.903 83.015,14.091 81.743,12.266 C77.139,5.662 70.839,1.763 62.916,0.438 C61.822,0.255 60.716,0.144 59.616,-0.000 C58.017,-0.000 56.418,-0.000 54.819,-0.000 C54.657,0.034 54.496,0.089 54.332,0.100 C49.766,0.423 45.362,1.459 41.115,3.149 C36.378,5.034 32.040,7.554 28.506,11.293 C26.498,13.416 24.945,15.813 24.330,18.719 C23.994,20.307 24.000,21.895 24.454,23.611 C24.698,22.834 24.876,22.189 25.102,21.561 C26.985,16.310 30.685,12.713 35.567,10.233 C40.346,7.806 45.471,6.797 50.795,6.725 C54.603,6.674 58.350,7.131 61.971,8.375 C65.994,9.756 69.337,12.194 72.363,15.109 C74.799,17.456 77.213,19.825 79.635,22.187 C79.650,22.202 79.633,22.249 79.632,22.261 C78.172,21.585 76.735,20.850 75.245,20.244 C71.590,18.755 68.150,16.915 64.917,14.628 C59.481,10.783 53.386,9.061 46.714,9.471 C43.066,9.695 39.533,10.528 35.997,11.401 C34.076,11.875 32.563,13.010 30.857,13.939 C31.023,14.268 31.150,14.553 31.304,14.822 C32.385,16.716 33.971,18.115 35.799,19.239 C40.608,22.198 45.943,23.569 51.485,24.170 C54.994,24.552 58.536,24.630 62.052,24.968 C66.686,25.414 71.256,26.241 75.645,27.859 C78.549,28.929 81.273,30.319 83.431,32.610 C83.906,33.115 84.312,33.684 84.751,34.224 C83.731,33.819 82.816,33.310 81.861,32.894 C77.526,31.005 72.926,30.107 68.292,29.366 C64.661,28.784 61.010,28.314 57.385,27.694 C53.991,27.114 50.625,26.364 47.234,25.760 C44.357,25.247 41.470,24.802 38.700,23.827 C34.710,22.423 31.700,19.971 30.193,15.907 C30.169,15.842 30.100,15.792 30.026,15.704 C29.462,16.490 28.964,17.273 28.374,17.979 C27.869,18.583 27.777,19.216 27.858,19.963 C28.192,22.995 29.752,25.344 31.938,27.344 C34.325,29.528 37.112,31.076 40.088,32.290 C44.795,34.209 49.648,35.486 54.775,35.530 C57.089,35.551 59.403,35.586 61.715,35.672 C65.461,35.811 69.184,36.163 72.813,37.180 C79.436,39.038 84.104,43.020 86.184,49.677 C86.945,52.113 87.431,54.636 88.008,57.128 C88.452,59.044 88.633,61.025 89.566,62.812 C91.124,65.794 93.486,67.975 96.342,69.669 C97.071,70.101 97.835,70.476 98.705,70.942 C95.881,70.364 93.568,69.153 91.686,67.130 C89.671,64.964 88.354,62.404 87.400,59.643 C86.441,56.868 85.644,54.032 84.578,51.300 C82.091,44.928 77.666,40.683 70.810,39.228 C67.381,38.500 63.899,38.292 60.417,38.043 C56.917,37.792 53.390,37.671 49.932,37.133 C39.874,35.566 32.088,30.413 26.583,21.850 C26.515,21.744 26.428,21.650 26.257,21.432 C26.306,21.750 26.322,21.914 26.356,22.075 C26.876,24.528 28.114,26.610 29.778,28.435 C33.725,32.762 38.544,35.700 44.183,37.313 C48.889,38.659 53.718,39.083 58.578,39.327 C62.399,39.518 66.215,39.757 69.995,40.441 C75.843,41.500 80.281,44.496 83.151,49.732 C83.233,49.883 83.293,50.045 83.364,50.203 C83.217,50.161 83.152,50.081 83.093,49.996 C80.383,46.127 76.757,43.538 72.178,42.355 C68.012,41.279 63.735,41.174 59.464,41.116 C56.310,41.073 53.154,41.150 50.003,41.048 C47.684,40.972 45.355,40.634 43.304,39.478 C40.487,37.892 37.669,36.279 35.014,34.443 C30.818,31.539 27.592,27.770 25.712,22.956 C25.687,22.890 25.630,22.836 25.504,22.661 C25.450,23.864 25.256,24.947 25.384,25.991 C25.713,28.662 26.953,30.976 28.560,33.094 C31.387,36.821 35.104,39.459 39.174,41.658 C39.506,41.837 39.873,41.981 40.152,42.223 C42.524,44.286 45.266,45.742 48.064,47.116 C48.605,47.382 49.172,47.684 49.581,48.108 C50.671,49.236 51.853,50.331 52.695,51.634 C55.851,56.521 56.959,61.865 56.036,67.642 C55.639,70.126 55.375,72.642 55.699,75.170 C56.093,78.254 57.407,80.773 60.198,82.349 C60.606,82.580 60.736,82.786 60.689,83.267 C60.338,86.839 61.098,90.087 63.689,92.722 C66.585,95.666 70.140,97.178 74.259,97.201 C79.668,97.232 83.032,93.884 82.967,88.675 C82.936,86.245 80.317,83.801 77.889,83.938 C76.594,84.011 75.787,84.995 76.055,86.213 C76.121,86.081 76.171,85.972 76.227,85.865 C76.463,85.411 76.709,84.916 77.306,84.942 C77.917,84.970 78.193,85.469 78.380,85.969 C78.747,86.945 78.801,87.952 78.380,88.920 C77.294,91.420 75.240,92.623 72.645,92.976 C70.100,93.321 68.325,92.085 67.049,90.006 C65.888,88.112 65.619,86.003 65.613,83.832 C65.612,83.316 65.739,83.070 66.292,82.933 C67.752,82.572 69.058,81.862 70.248,80.941 C68.806,81.570 67.348,82.105 65.591,82.168 C65.949,80.348 66.180,78.596 66.650,76.911 C67.526,73.782 68.583,70.704 69.490,67.584 C71.307,61.330 70.222,55.751 65.486,51.068 C65.101,50.687 64.695,50.328 64.298,49.958 C64.490,49.922 64.650,49.945 64.788,50.012 C66.282,50.729 67.784,51.435 69.258,52.194 C69.505,52.321 69.729,52.669 69.789,52.951 C70.173,54.757 70.477,56.579 70.862,58.384 C71.939,63.430 73.431,68.336 75.893,72.905 C78.069,76.942 80.645,80.655 84.622,83.146 C86.739,84.473 88.889,85.758 91.095,86.930 C94.081,88.516 97.175,89.902 100.149,91.509 C103.351,93.238 104.911,96.644 104.359,100.231 C103.825,103.702 102.139,106.575 99.572,108.878 C95.537,112.498 91.401,116.007 87.286,119.537 C86.898,119.871 86.830,120.159 86.950,120.614 C87.533,122.827 88.931,124.335 90.999,125.217 C91.818,125.566 92.711,125.744 93.570,126.000 C94.453,126.000 95.337,126.000 96.220,126.000 C97.569,125.621 98.922,125.257 100.263,124.854 C100.676,124.730 101.056,124.500 101.562,124.268 C101.025,124.070 100.595,123.927 100.177,123.753 C97.706,122.729 96.896,120.950 97.788,118.432 C98.544,116.299 99.926,114.552 101.327,112.816 C102.750,111.053 104.180,109.293 105.536,107.480 C106.122,106.697 106.562,105.798 107.006,104.920 C107.207,104.522 107.421,104.400 107.863,104.405 C112.263,104.456 115.939,102.885 118.771,99.472 C120.263,97.674 120.816,95.484 121.180,93.270 C121.412,91.860 121.315,90.396 121.382,88.957 C121.391,88.766 121.446,88.539 121.562,88.395 C123.476,86.027 124.549,83.317 124.891,80.305 C124.907,80.162 124.962,80.024 124.999,79.883 C124.999,78.876 124.999,77.867 124.999,76.859 C124.816,75.875 124.690,74.875 124.443,73.906 ZM64.809,62.249 C64.862,64.790 64.531,67.279 63.890,69.722 C62.870,73.614 61.788,77.489 60.721,81.413 C59.700,81.016 58.886,80.257 58.344,79.194 C57.619,77.770 57.315,76.230 57.087,74.667 C56.678,71.871 56.947,69.112 57.383,66.337 C57.924,62.892 57.974,59.438 56.999,56.035 C56.331,53.705 55.142,51.684 53.424,49.972 C53.276,49.824 53.130,49.674 52.984,49.523 C52.970,49.509 52.966,49.486 52.895,49.340 C55.809,50.721 58.583,52.062 60.957,54.091 C63.468,56.237 64.740,58.943 64.809,62.249 ZM83.677,25.325 C83.568,25.227 83.458,25.131 83.420,24.920 C84.796,25.650 86.261,26.252 87.531,27.134 C92.139,30.332 95.577,34.528 97.811,39.679 C98.436,41.118 98.725,42.635 98.665,44.217 C98.543,47.424 98.446,50.631 98.332,53.980 C97.012,52.733 96.038,51.355 95.604,49.723 C95.067,47.705 94.665,45.642 94.344,43.577 C93.871,40.535 93.358,37.507 91.643,34.876 C89.365,31.385 86.792,28.127 83.677,25.325 ZM72.369,56.020 C72.279,55.442 72.190,54.865 72.076,54.124 C72.380,54.370 72.570,54.517 72.752,54.673 C76.010,57.474 78.096,61.043 79.571,65.019 C81.101,69.146 83.103,73.002 86.209,76.193 C87.069,77.078 88.027,77.870 88.843,78.616 C80.285,73.419 73.991,66.419 72.369,56.020 ZM88.058,64.707 C87.086,61.879 86.354,58.969 85.513,56.096 C85.576,56.064 85.639,56.033 85.701,56.001 C86.265,57.645 86.780,59.308 87.409,60.926 C87.962,62.350 88.567,63.765 89.283,65.113 C91.355,69.019 94.507,71.529 98.902,72.478 C101.526,73.045 104.134,73.722 106.701,74.505 C108.742,75.127 110.574,76.210 112.200,77.798 C110.926,77.510 109.768,77.192 108.591,76.993 C106.229,76.595 103.841,76.340 101.490,75.889 C94.964,74.638 90.261,71.109 88.058,64.707 ZM111.551,75.702 C112.605,76.456 113.384,77.374 113.929,78.483 C113.150,77.573 112.372,76.662 111.551,75.702 ZM107.667,103.526 C107.744,103.273 107.801,103.062 107.870,102.856 C109.415,98.291 108.675,94.003 106.255,89.940 C105.440,88.572 104.223,87.585 102.853,86.818 C100.288,85.382 97.683,84.016 95.114,82.587 C93.777,81.843 92.478,81.031 91.162,80.249 C91.197,80.202 91.232,80.154 91.266,80.107 C93.875,81.567 96.693,82.442 99.581,83.116 C101.666,83.603 103.767,84.030 105.840,84.566 C108.419,85.233 110.804,86.280 112.574,88.394 C113.436,89.421 114.082,90.558 114.490,91.835 C114.604,92.192 114.549,92.410 114.187,92.585 C113.207,93.057 112.243,93.562 111.298,94.144 C112.435,93.830 113.571,93.516 114.707,93.202 C115.635,97.169 112.091,102.416 107.667,103.526 ZM120.967,85.800 C120.905,85.923 120.828,86.039 120.808,86.073 C119.922,84.695 119.084,83.274 118.123,81.941 C117.579,81.184 116.828,80.576 116.184,79.887 C116.039,79.730 115.873,79.522 115.858,79.328 C115.584,75.508 113.517,72.766 110.567,70.567 C108.013,68.663 105.147,67.347 102.134,66.382 C100.120,65.738 98.571,64.550 97.280,62.943 C95.289,60.466 93.868,57.658 92.563,54.788 C92.115,53.803 91.753,52.779 91.351,51.773 C91.397,51.750 91.443,51.727 91.488,51.704 C91.563,51.784 91.647,51.857 91.708,51.946 C93.379,54.350 95.565,56.132 98.220,57.362 C98.455,57.471 98.742,57.702 98.797,57.928 C99.921,62.447 102.843,65.518 106.841,67.592 C108.727,68.571 110.814,69.169 112.818,69.920 C113.977,70.353 115.169,70.705 116.317,71.167 C119.697,72.527 121.439,75.189 122.074,78.646 C122.533,81.141 122.091,83.531 120.967,85.800 ZM15.031,62.887 C16.386,62.437 17.767,62.063 19.110,61.582 C21.530,60.714 22.912,58.913 23.531,56.477 C23.879,55.108 23.835,53.732 23.577,52.356 C23.103,49.829 22.065,47.507 20.828,45.289 C18.714,41.498 18.534,37.560 19.648,33.469 C20.381,30.779 21.611,28.299 22.849,25.820 C23.069,25.379 23.239,24.913 23.432,24.459 C23.272,24.449 23.203,24.488 23.160,24.545 C21.316,27.006 19.650,29.571 18.543,32.458 C17.485,35.215 17.061,38.043 17.587,40.980 C17.993,43.241 18.993,45.268 19.986,47.310 C20.670,48.719 21.414,50.148 21.773,51.654 C22.564,54.971 21.388,57.443 18.435,58.849 C17.546,59.273 16.616,59.612 15.700,59.977 C14.453,60.475 13.166,60.887 11.962,61.471 C10.447,62.205 9.495,63.457 9.124,65.121 C9.103,65.217 9.043,65.303 9.000,65.394 C9.000,66.318 9.000,67.242 9.000,68.166 C9.175,68.981 9.351,69.796 9.525,70.611 C9.655,70.362 9.646,70.133 9.657,69.904 C9.729,68.352 10.029,66.876 10.944,65.563 C11.953,64.116 13.435,63.416 15.031,62.887 ZM77.433,104.417 C76.773,103.807 76.113,103.155 75.343,102.710 C66.621,97.678 57.510,96.761 48.017,100.260 C47.522,100.442 47.145,100.440 46.738,100.132 C46.035,99.599 45.321,99.080 44.612,98.555 C41.844,96.507 39.096,94.429 36.294,92.427 C35.537,91.886 34.631,91.540 33.765,91.172 C33.169,90.919 32.677,91.097 32.225,91.639 C29.564,94.828 28.715,98.360 29.892,102.398 C30.429,104.241 30.805,106.142 31.104,108.041 C31.247,108.942 31.038,109.900 30.987,110.863 C31.401,110.760 31.821,110.627 32.251,110.554 C33.175,110.397 34.119,110.091 35.029,110.163 C40.193,110.567 45.290,111.407 50.254,112.922 C54.482,114.213 58.533,115.904 61.969,118.752 C63.410,119.947 64.658,121.372 65.991,122.690 C66.637,121.841 67.364,120.869 68.109,119.910 C70.546,116.777 73.027,113.678 75.409,110.504 C76.322,109.287 77.035,107.916 77.798,106.592 C78.255,105.798 78.091,105.024 77.433,104.417 ZM36.069,69.489 C38.315,70.183 40.532,70.974 42.775,71.683 C43.048,71.769 43.442,71.699 43.704,71.558 C45.857,70.404 47.287,68.623 48.133,66.352 C48.201,66.170 48.281,65.994 48.356,65.815 C48.424,65.826 48.492,65.837 48.560,65.849 C48.451,67.922 48.341,69.995 48.232,72.063 C49.973,71.927 51.266,71.022 51.785,69.455 C52.581,67.045 52.192,64.620 51.846,62.109 C50.617,63.055 49.488,63.955 48.326,64.811 C46.570,66.106 44.689,67.165 42.504,67.551 C40.848,67.843 39.351,66.696 39.305,65.019 C39.273,63.851 38.867,63.143 37.688,62.828 C36.829,62.598 36.507,61.991 36.544,61.099 C36.553,60.891 36.588,60.683 36.619,60.405 C36.491,60.355 36.397,60.315 36.301,60.280 C35.080,59.831 34.626,59.097 34.773,57.812 C34.802,57.562 34.851,57.310 34.843,57.061 C34.826,56.504 34.668,56.104 34.008,55.938 C33.283,55.756 32.599,55.403 31.909,55.099 C31.421,54.884 31.272,54.512 31.376,53.970 C31.627,52.673 31.781,51.356 32.058,50.065 C32.578,47.641 32.248,45.423 31.025,43.215 C29.891,41.169 29.004,38.975 28.138,36.796 C26.729,33.248 25.383,29.671 24.598,25.918 C24.538,25.628 24.485,25.336 24.400,24.896 C22.964,27.482 21.618,29.927 20.723,32.579 C20.350,33.687 20.018,34.831 19.862,35.985 C19.408,39.360 20.005,42.624 21.434,45.676 C22.642,48.256 24.133,50.700 25.435,53.238 C26.024,54.387 26.583,55.581 26.929,56.818 C27.408,58.536 26.790,59.852 25.202,60.651 C24.180,61.165 23.061,61.502 21.966,61.856 C20.329,62.384 18.627,62.741 17.035,63.376 C13.019,64.979 11.061,68.102 11.273,72.397 C11.395,74.856 12.246,77.149 12.967,79.474 C13.524,81.272 14.119,83.082 14.408,84.932 C14.741,87.058 13.778,88.173 11.641,88.619 C11.170,88.718 10.690,88.772 10.139,88.858 C12.616,90.587 17.548,89.803 18.837,85.851 C19.249,84.587 19.390,83.292 19.143,81.999 C18.792,80.168 18.303,78.364 17.932,76.536 C17.364,73.738 18.010,72.157 20.547,70.856 C22.367,69.923 24.343,69.290 26.251,68.528 C26.387,68.474 26.538,68.455 26.667,68.423 C25.460,69.148 24.200,69.791 23.065,70.607 C19.825,72.934 18.583,76.130 19.318,80.025 C19.635,81.709 20.208,83.343 20.626,85.009 C21.380,88.016 20.508,90.079 17.844,91.678 C17.498,91.886 17.143,92.081 16.812,92.271 C18.208,92.271 19.586,92.271 21.016,92.271 C21.049,91.733 21.077,91.298 21.101,90.862 C21.362,86.252 21.634,81.641 21.876,77.030 C21.989,74.860 22.677,72.927 24.070,71.252 C25.260,69.821 26.770,68.939 28.615,68.653 C31.174,68.257 33.645,68.738 36.069,69.489 ZM35.223,63.931 C34.895,65.246 32.572,66.740 30.784,66.959 C32.182,66.005 33.763,64.927 35.223,63.931 Z" class="cls-1"/>
    <text y="170" class="cls-2"><tspan class="cls-3">暂无发布信息</tspan></text>
  </g>
</svg>
