<svg xmlns="http://www.w3.org/2000/svg" width="36" height="36" viewBox="0 0 36 36">
  <metadata><?xpacket begin="﻿" id="W5M0MpCehiHzreSzNTczkc9d"?>
<x:xmpmeta xmlns:x="adobe:ns:meta/" x:xmptk="Adobe XMP Core 5.6-c138 79.159824, 2016/09/14-01:09:01        ">
   <rdf:RDF xmlns:rdf="http://www.w3.org/1999/02/22-rdf-syntax-ns#">
      <rdf:Description rdf:about=""/>
   </rdf:RDF>
</x:xmpmeta>
                                                                                                    
                                                                                                    
                                                                                                    
                                                                                                    
                                                                                                    
                                                                                                    
                                                                                                    
                                                                                                    
                                                                                                    
                                                                                                    
                                                                                                    
                                                                                                    
                                                                                                    
                                                                                                    
                                                                                                    
                                                                                                    
                                                                                                    
                                                                                                    
                                                                                                    
                                                                                                    
                           
<?xpacket end="w"?></metadata>
<defs>
    <style>
      .cls-1 {
        fill: #fff;
        fill-rule: evenodd;
      }
    </style>
  </defs>
  <path id="形状_2" data-name="形状 2" class="cls-1" d="M28,36H8a6.007,6.007,0,0,1-6-6V6A6.007,6.007,0,0,1,8,0H9A1,1,0,0,1,9,2H8A4,4,0,0,0,4,6V30a4,4,0,0,0,4,4H28a4,4,0,0,0,4-4V6a4,4,0,0,0-4-4H27a1,1,0,0,1,0-2h1a6.006,6.006,0,0,1,6,6V30a6.007,6.007,0,0,1-6,6h0ZM22.75,2h-9.5a1,1,0,1,1,0-2h9.5a1,1,0,1,1,0,2h0Zm5.375,10.458H7.875a1,1,0,1,1,0-2h20.25a1,1,0,1,1,0,2h0Zm0,6.542H7.875a1,1,0,1,1,0-2h20.25a1,1,0,1,1,0,2h0Zm0,6.542H7.875a1,1,0,1,1,0-2h20.25a1,1,0,1,1,0,2h0Z"/>
</svg>
