<svg xmlns="http://www.w3.org/2000/svg" xmlns:xlink="http://www.w3.org/1999/xlink" preserveAspectRatio="xMidYMid" width="39" height="39" viewBox="0 0 39 39">
  <defs>
    <style>
      .cls-1 {
        fill: #ffa760;
        fill-rule: evenodd;
      }
    </style>
  </defs>
  <path d="M39.000,34.908 C39.000,35.479 38.911,36.005 38.710,36.485 C38.532,36.965 38.265,37.399 37.908,37.765 C37.574,38.131 37.172,38.428 36.705,38.634 C36.236,38.839 35.635,39.000 35.078,39.000 L4.881,39.000 C4.346,39.000 2.986,38.839 2.496,38.634 C2.006,38.428 1.582,38.131 1.203,37.765 C0.825,37.399 0.535,36.965 0.312,36.485 C0.089,36.005 -0.000,35.479 -0.000,34.908 L-0.000,12.735 C-0.000,11.615 0.379,10.655 1.137,9.878 C1.894,9.101 2.808,9.009 3.900,9.009 L35.100,9.009 C36.192,9.009 37.106,9.101 37.863,9.878 C38.621,10.655 39.000,11.615 39.000,12.735 L39.000,18.998 L29.239,18.998 C28.147,18.998 27.233,19.158 26.475,19.936 C25.718,20.713 25.339,21.650 25.339,22.770 C25.361,23.547 25.517,24.210 25.807,24.804 C26.030,25.307 26.409,25.765 26.943,26.176 C27.478,26.587 28.236,26.976 29.239,26.976 L39.000,26.976 L39.000,34.908 L39.000,34.908 L39.000,34.908 ZM33.139,6.998 L13.639,6.998 C15.177,6.175 16.647,5.009 18.029,4.255 C19.233,3.615 20.414,2.952 21.595,2.289 C22.776,1.649 23.690,1.123 24.336,0.780 C25.339,0.209 26.230,-0.043 27.010,0.003 C27.790,0.049 28.459,0.186 29.016,0.414 C29.640,0.734 30.197,1.169 30.643,1.695 L33.139,6.998 L33.139,6.998 ZM27.322,22.770 C27.322,22.199 27.501,21.741 27.879,21.353 C28.258,20.964 28.704,20.781 29.261,20.781 C29.818,20.781 30.264,20.964 30.643,21.353 C31.022,21.741 31.200,22.222 31.200,22.770 C31.200,23.341 31.022,23.822 30.643,24.210 C30.264,24.599 29.818,24.804 29.261,24.804 C28.704,24.804 28.258,24.599 27.879,24.210 C27.501,23.822 27.322,23.341 27.322,22.770 L27.322,22.770 L27.322,22.770 Z" class="cls-1"/>
</svg>
