<svg xmlns="http://www.w3.org/2000/svg" width="36" height="36" viewBox="0 0 36 36">
  <metadata><?xpacket begin="﻿" id="W5M0MpCehiHzreSzNTczkc9d"?>
<x:xmpmeta xmlns:x="adobe:ns:meta/" x:xmptk="Adobe XMP Core 5.6-c138 79.159824, 2016/09/14-01:09:01        ">
   <rdf:RDF xmlns:rdf="http://www.w3.org/1999/02/22-rdf-syntax-ns#">
      <rdf:Description rdf:about=""/>
   </rdf:RDF>
</x:xmpmeta>
                                                                                                    
                                                                                                    
                                                                                                    
                                                                                                    
                                                                                                    
                                                                                                    
                                                                                                    
                                                                                                    
                                                                                                    
                                                                                                    
                                                                                                    
                                                                                                    
                                                                                                    
                                                                                                    
                                                                                                    
                                                                                                    
                                                                                                    
                                                                                                    
                                                                                                    
                                                                                                    
                           
<?xpacket end="w"?></metadata>
<defs>
    <style>
      .cls-1 {
        fill: #fff;
        fill-rule: evenodd;
      }
    </style>
  </defs>
  <path id="形状_1" data-name="形状 1" class="cls-1" d="M35.381,11.308H4.636A4.467,4.467,0,0,0,0,15.584V31.728A4.463,4.463,0,0,0,4.636,36H35.451a5.153,5.153,0,0,1-.387-1.367A3.712,3.712,0,0,1,36,33.126V31.619a3.86,3.86,0,0,1-.936-1.507A3.86,3.86,0,0,1,36,28.6V27.1a3.86,3.86,0,0,1-.936-1.507A3.86,3.86,0,0,1,36,24.082V22.575a3.86,3.86,0,0,1-.936-1.507A3.86,3.86,0,0,1,36,19.561V18.054a3.86,3.86,0,0,1-.936-1.507A3.86,3.86,0,0,1,36,15.039v-1.5a3.86,3.86,0,0,1-.936-1.507,0.861,0.861,0,0,1,.316-0.721h0Zm-1.925,1.942v1.793a3.86,3.86,0,0,0-.936,1.507,3.86,3.86,0,0,0,.936,1.507v1.507a3.86,3.86,0,0,0-.936,1.507,3.86,3.86,0,0,0,.936,1.507v1.507a3.86,3.86,0,0,0-.936,1.507,3.86,3.86,0,0,0,.936,1.507v1.507a3.86,3.86,0,0,0-.936,1.507,3.86,3.86,0,0,0,.936,1.507v1.569l-0.308.857H4.363c-1.006,0-2.25-1.353-2.25-2.883V15.039a2.209,2.209,0,0,1,1.692-1.78l29.651-.009h0ZM18.261,26.706h0V26.7H14.61V24.478h3.651V24.465h0a0.791,0.791,0,1,0,0-1.582H15.151L18.56,16.6h0a1.017,1.017,0,0,0-.822-1.626,1.02,1.02,0,0,0-.958.672H16.772s-2.948,5.761-3.085,6.152h-0.04c-0.189-.483-3.225-6.152-3.225-6.152H10.414a1.009,1.009,0,0,0-1.96.338,0.979,0.979,0,0,0,.171.562l0,0,3.4,6.332H8.845a0.791,0.791,0,0,0,0,1.582v0.013h3.766V26.7H8.845v0.009a0.791,0.791,0,0,0,0,1.582V28.3h3.766V31.5h0.022a1.016,1.016,0,0,0-.022.2,0.993,0.993,0,1,0,1.986,0,1.016,1.016,0,0,0-.022-0.2H14.6V28.3h3.652V28.288h0a0.79,0.79,0,0,0,.791-0.791,0.78,0.78,0,0,0-.782-0.791h0ZM24.7,15.522a1.009,1.009,0,0,1,1.09-.9h0a1.006,1.006,0,0,1,1.09.9v1.336a1.009,1.009,0,0,1-1.09.9h0a1.006,1.006,0,0,1-1.09-.9V15.522h0Zm0,4.935a1.009,1.009,0,0,1,1.09-.9h0a1.006,1.006,0,0,1,1.09.9v1.336a1.009,1.009,0,0,1-1.09.9h0a1.006,1.006,0,0,1-1.09-.9V20.457h0Zm0,4.93a1.009,1.009,0,0,1,1.09-.9h0a1.006,1.006,0,0,1,1.09.9v1.336a1.009,1.009,0,0,1-1.09.9h0a1.006,1.006,0,0,1-1.09-.9V25.388h0Zm0,4.935a1.009,1.009,0,0,1,1.09-.9h0a1.006,1.006,0,0,1,1.09.9v1.336a1.009,1.009,0,0,1-1.09.9h0a1.006,1.006,0,0,1-1.09-.9V30.322h0ZM7.483,9.933l0.91-2.395a1.914,1.914,0,0,1,2.113-.8l8.419,3.195h6.284L11.842,4.858A4.467,4.467,0,0,0,5.989,7.2L4.952,9.933H7.483Zm7.4-5.466,1.648-1.925a1.911,1.911,0,0,1,2.258-.035L25.911,8.6l3.559,1.336H30.9L20.687,1.188a4.466,4.466,0,0,0-6.3.228L12.532,3.583l2.355,0.883h0Z"/>
</svg>
