<svg xmlns="http://www.w3.org/2000/svg" xmlns:xlink="http://www.w3.org/1999/xlink" preserveAspectRatio="xMidYMid" width="23" height="25" viewBox="0 0 23 25">
  <defs>
    <style>
      .cls-1 {
        fill: #fff5f4;
        fill-rule: evenodd;
      }
    </style>
  </defs>
  <path d="M17.262,1.528 C11.766,-1.619 4.730,0.262 1.547,5.730 C-1.603,11.140 0.202,18.035 5.567,21.227 L3.455,25.002 C3.455,25.002 8.745,25.080 15.410,22.158 C15.411,22.158 15.412,22.157 15.413,22.156 C17.869,21.268 20.039,19.550 21.450,17.125 C24.633,11.658 22.758,4.675 17.262,1.528 L17.262,1.528 L17.262,1.528 ZM12.954,9.213 C12.954,8.224 12.323,7.638 11.267,7.638 C10.378,7.638 9.655,8.022 8.951,8.792 L7.431,7.399 C8.469,6.227 9.859,5.457 11.564,5.457 C13.880,5.457 15.567,6.648 15.567,8.975 C15.567,11.742 12.175,12.072 12.453,14.674 L10.062,14.674 C9.655,11.724 12.954,11.046 12.954,9.213 ZM11.267,15.939 C12.379,15.939 13.194,16.671 13.194,17.734 C13.194,18.797 12.379,19.548 11.267,19.548 C10.155,19.548 9.340,18.797 9.340,17.734 C9.340,16.671 10.155,15.939 11.267,15.939 Z" class="cls-1"/>
</svg>
