<svg xmlns="http://www.w3.org/2000/svg" width="36" height="36" viewBox="0 0 36 36">
  <metadata><?xpacket begin="﻿" id="W5M0MpCehiHzreSzNTczkc9d"?>
<x:xmpmeta xmlns:x="adobe:ns:meta/" x:xmptk="Adobe XMP Core 5.6-c138 79.159824, 2016/09/14-01:09:01        ">
   <rdf:RDF xmlns:rdf="http://www.w3.org/1999/02/22-rdf-syntax-ns#">
      <rdf:Description rdf:about=""/>
   </rdf:RDF>
</x:xmpmeta>
                                                                                                    
                                                                                                    
                                                                                                    
                                                                                                    
                                                                                                    
                                                                                                    
                                                                                                    
                                                                                                    
                                                                                                    
                                                                                                    
                                                                                                    
                                                                                                    
                                                                                                    
                                                                                                    
                                                                                                    
                                                                                                    
                                                                                                    
                                                                                                    
                                                                                                    
                                                                                                    
                           
<?xpacket end="w"?></metadata>
<defs>
    <style>
      .cls-1 {
        fill: #fff;
        fill-rule: evenodd;
      }
    </style>
  </defs>
  <path id="形状_3" data-name="形状 3" class="cls-1" d="M25.875,31.5L27,32.727h0.157c-0.138.077-.017-0.175-0.157-0.1l5.9,0.981a1.216,1.216,0,0,1,1.116,1.324A1.241,1.241,0,0,1,32.759,36c-0.046,0-.092,0-0.139-0.007l-8.841-.921a1.277,1.277,0,0,1-.846-0.442,1.163,1.163,0,0,1-.27-0.882l0.969-8.418a1.246,1.246,0,0,1,1.391-1.063,1.215,1.215,0,0,1,1.116,1.323l-0.608,5.285A5.987,5.987,0,0,1,25.875,31.5Zm-14.9-19.767a1.216,1.216,0,0,1-1.116-1.324L10.47,5.124c0.016,0.022-.328-0.558-0.345-0.624L9,3.273H8.84c0.138-.078.27-0.165,0.411-0.24L3.1,2.393A1.215,1.215,0,0,1,1.989,1.07,1.238,1.238,0,0,1,3.24,0c0.046,0,.092,0,0.139.007l8.841,0.921a1.28,1.28,0,0,1,.846.442,1.164,1.164,0,0,1,.271.882l-0.969,8.418A1.248,1.248,0,0,1,10.978,11.733ZM24.75,34.678V32.213A15.74,15.74,0,0,0,18,2.249V0A18,18,0,0,1,24.75,34.678ZM2.25,18A15.751,15.751,0,0,0,18,33.75V36A18,18,0,0,1,11.25,1.32V3.786A15.734,15.734,0,0,0,2.25,18Z"/>
</svg>
