<svg xmlns="http://www.w3.org/2000/svg" xmlns:xlink="http://www.w3.org/1999/xlink" preserveAspectRatio="xMidYMid" width="49" height="54" viewBox="0 0 49 54">
  <defs>
    <style>
      .cls-1 {
        fill: #c9c9c5;
        fill-rule: evenodd;
      }
    </style>
  </defs>
  <path d="M44.444,-0.000 L49.000,-0.000 L36.619,21.333 C40.034,24.683 42.156,29.372 42.156,34.564 C42.156,44.744 33.996,52.999 23.931,52.999 C13.865,52.999 5.704,44.744 5.704,34.564 C5.704,29.006 8.136,24.024 11.981,20.644 C11.981,20.644 11.981,20.644 11.981,20.644 L-0.000,-0.000 L4.556,-0.000 L15.217,18.369 C15.534,18.195 15.857,18.030 16.185,17.874 L5.811,-0.000 L13.785,-0.000 L23.157,16.148 C23.413,16.137 23.671,16.130 23.931,16.130 C24.566,16.130 25.193,16.163 25.812,16.227 C25.807,16.227 25.803,16.226 25.798,16.226 L35.215,-0.000 L43.189,-0.000 L32.555,18.321 C32.874,18.495 33.186,18.678 33.493,18.869 L44.444,-0.000 ZM23.931,18.434 C15.122,18.434 7.983,25.655 7.983,34.564 C7.983,43.473 15.122,50.694 23.931,50.694 C32.739,50.694 39.878,43.473 39.878,34.564 C39.878,25.655 32.739,18.434 23.931,18.434 ZM23.931,48.390 C16.382,48.390 10.261,42.199 10.261,34.564 C10.261,26.929 16.382,20.739 23.931,20.739 C31.480,20.739 37.600,26.929 37.600,34.564 C37.600,42.199 31.480,48.390 23.931,48.390 ZM29.759,40.474 L21.630,40.474 C21.973,39.576 23.019,38.538 24.773,37.364 C26.389,36.257 27.505,35.381 28.142,34.713 C29.190,33.538 29.736,32.249 29.736,30.820 C29.736,29.368 29.235,28.194 28.256,27.271 C27.254,26.349 25.957,25.912 24.409,25.912 C22.678,25.912 21.266,26.488 20.219,27.685 C19.194,28.792 18.671,30.266 18.647,32.109 L21.129,32.109 C21.175,30.773 21.447,29.782 21.995,29.092 C22.518,28.376 23.292,28.032 24.318,28.032 C25.274,28.032 26.025,28.261 26.526,28.722 C27.027,29.184 27.277,29.875 27.277,30.797 C27.277,31.765 26.889,32.663 26.162,33.493 C25.706,33.977 24.932,34.598 23.839,35.381 C21.995,36.672 20.764,37.663 20.173,38.376 C19.080,39.620 18.556,41.049 18.556,42.685 L29.759,42.685 L29.759,40.474 Z" class="cls-1"/>
</svg>
