<svg xmlns="http://www.w3.org/2000/svg" xmlns:xlink="http://www.w3.org/1999/xlink" preserveAspectRatio="xMidYMid" width="40" height="34" viewBox="0 0 40 34">
  <defs>
    <style>
      .cls-1 {
        fill: #ffa760;
        fill-rule: evenodd;
      }
    </style>
  </defs>
  <path d="M6.903,34.000 C6.309,34.000 5.826,33.497 5.826,32.880 L5.826,29.857 C5.826,23.803 9.334,18.436 14.766,16.181 L15.380,15.927 L14.857,15.500 C12.820,13.835 11.649,11.348 11.649,8.680 C11.649,3.893 15.400,-0.001 20.009,-0.001 C24.617,-0.001 28.366,3.893 28.366,8.680 C28.366,11.348 27.197,13.835 25.160,15.503 L24.637,15.927 L25.251,16.181 C30.683,18.436 34.191,23.803 34.191,29.857 L34.191,32.880 C34.191,33.497 33.708,34.000 33.114,34.000 L6.903,34.000 L6.903,34.000 L6.903,34.000 ZM1.077,29.458 C0.483,29.458 -0.000,28.958 -0.000,28.345 L-0.000,26.005 C-0.000,21.607 2.323,17.631 6.057,15.621 L6.497,15.384 L6.163,15.000 C5.006,13.674 4.369,11.967 4.369,10.192 C4.369,6.403 7.297,3.217 10.929,3.034 C10.566,3.593 10.409,4.091 10.300,4.599 C7.186,5.012 5.566,7.485 5.566,10.288 C5.566,13.041 6.397,13.957 7.920,14.774 C8.363,15.147 8.377,15.342 8.409,15.570 C8.394,15.856 8.243,16.085 8.054,16.175 L7.586,16.325 C3.534,17.388 1.203,21.638 1.203,25.976 L1.197,28.113 L3.523,28.084 C3.400,28.822 3.400,28.822 3.311,29.458 L1.077,29.458 L1.077,29.458 L1.077,29.458 ZM36.689,29.458 C36.640,28.972 36.600,28.599 36.480,28.234 L38.811,28.234 L38.811,26.002 C38.680,21.457 36.526,17.181 32.277,16.206 L32.003,16.122 C31.777,16.006 31.754,15.788 31.740,15.565 C31.740,15.115 31.954,15.070 32.403,14.895 C33.957,13.236 34.443,12.123 34.443,10.192 C33.949,6.213 32.483,5.320 29.854,4.557 C29.586,3.673 29.631,3.819 29.068,3.034 C32.700,3.215 35.631,6.400 35.631,10.192 C35.631,11.967 34.994,13.674 33.837,15.000 L33.503,15.384 L33.943,15.621 C37.680,17.631 40.000,21.607 40.000,26.005 L40.000,28.345 C40.000,28.961 39.517,29.461 38.923,29.461 L36.689,29.461 L36.689,29.458 L36.689,29.458 Z" class="cls-1"/>
</svg>
