<svg xmlns="http://www.w3.org/2000/svg" xmlns:xlink="http://www.w3.org/1999/xlink" preserveAspectRatio="xMidYMid" width="31" height="34" viewBox="0 0 31 34">
  <defs>
    <style>
      .cls-1 {
        fill: #2c3038;
        fill-rule: evenodd;
      }
    </style>
  </defs>
  <path d="M30.999,10.862 C31.000,10.035 30.780,9.220 30.361,8.501 C29.966,7.823 29.404,7.249 28.734,6.839 L17.802,0.589 C17.104,0.206 16.317,0.000 15.496,0.000 C14.617,0.000 13.797,0.240 13.088,0.652 L13.086,0.648 L2.442,6.737 C1.710,7.146 1.083,7.741 0.649,8.483 C0.212,9.230 0.009,10.048 0.011,10.855 L-0.000,10.855 L-0.000,23.162 L0.003,23.162 C0.007,23.975 0.218,24.776 0.639,25.499 C0.736,25.666 0.845,25.828 0.963,25.983 C1.008,26.044 1.062,26.097 1.110,26.155 C1.186,26.246 1.260,26.338 1.343,26.423 C1.401,26.483 1.468,26.536 1.529,26.595 C1.610,26.668 1.688,26.746 1.774,26.815 C1.842,26.869 1.916,26.916 1.987,26.966 C2.068,27.025 2.145,27.087 2.230,27.140 L2.261,27.158 C2.264,27.160 2.266,27.161 2.268,27.164 L2.269,27.164 L2.295,27.179 C2.355,27.214 2.414,27.248 2.474,27.282 L13.116,33.367 L13.120,33.362 C13.822,33.764 14.633,33.998 15.501,34.000 L15.504,34.000 C16.342,34.000 17.130,33.782 17.815,33.405 L17.815,33.406 L28.648,27.218 C29.350,26.808 29.940,26.220 30.351,25.516 C30.776,24.789 30.990,23.981 30.992,23.162 L31.000,23.162 L31.000,10.862 L30.999,10.862 L30.999,10.862 ZM13.204,9.737 L12.207,9.737 C11.933,9.737 11.709,9.963 11.709,10.240 C11.709,10.517 11.933,10.743 12.207,10.743 L13.204,10.743 C13.478,10.743 13.702,10.517 13.702,10.240 C13.702,9.963 13.478,9.737 13.204,9.737 ZM19.183,15.778 L12.207,15.778 C11.933,15.778 11.709,16.004 11.709,16.281 C11.709,16.558 11.933,16.784 12.207,16.784 L19.183,16.784 C19.457,16.784 19.682,16.558 19.682,16.281 C19.682,16.004 19.457,15.778 19.183,15.778 ZM19.183,19.805 L12.207,19.805 C11.933,19.805 11.709,20.031 11.709,20.308 C11.709,20.585 11.933,20.812 12.207,20.812 L19.183,20.812 C19.457,20.812 19.682,20.585 19.682,20.308 C19.682,20.031 19.457,19.805 19.183,19.805 ZM22.692,23.835 C22.692,24.391 22.245,24.842 21.695,24.842 L9.736,24.842 C9.186,24.842 8.740,24.391 8.740,23.835 L8.740,13.767 C8.740,13.210 9.186,12.760 9.736,12.760 L21.695,12.760 C22.245,12.760 22.692,13.210 22.692,13.767 L22.692,23.835 ZM22.692,10.741 C22.692,11.297 22.245,11.748 21.695,11.748 L9.736,11.748 C9.185,11.748 8.740,11.297 8.740,10.741 L8.740,9.734 C8.740,9.178 9.185,8.727 9.736,8.727 L21.695,8.727 C22.245,8.727 22.692,9.178 22.692,9.734 L22.692,10.741 Z" class="cls-1"/>
</svg>
