<svg xmlns="http://www.w3.org/2000/svg" xmlns:xlink="http://www.w3.org/1999/xlink" preserveAspectRatio="xMidYMid" width="53" height="58" viewBox="0 0 53 58">
  <defs>
    <style>
      .cls-1 {
        fill: #f8a49c;
        fill-rule: evenodd;
      }
    </style>
  </defs>
  <path d="M49.564,58.000 L7.193,58.000 C5.296,58.000 3.758,56.318 3.758,54.242 L3.758,49.714 L4.569,49.848 L4.569,50.000 C4.569,56.474 4.658,57.000 10.965,57.000 L46.603,57.000 C51.421,57.000 52.086,56.083 52.086,51.000 L52.086,8.000 C52.086,0.925 51.813,1.000 45.690,1.000 L10.965,1.000 C5.106,1.000 4.569,1.432 4.569,8.000 L4.569,8.151 L3.758,8.286 L3.758,3.758 C3.758,1.682 5.296,0.000 7.193,0.000 L49.564,0.000 C51.461,0.000 52.999,1.682 52.999,3.758 L52.999,54.242 C52.999,56.318 51.461,58.000 49.564,58.000 ZM4.569,14.007 L4.569,8.151 L5.483,8.000 L5.483,14.007 L8.237,14.007 C10.537,14.007 10.729,16.000 8.237,16.000 L5.483,16.000 L5.483,26.003 L8.751,26.003 C10.586,26.003 10.385,27.996 8.751,27.996 L5.483,27.996 L5.483,38.998 L8.655,38.998 C10.514,38.998 10.476,41.007 8.655,41.007 L5.483,41.007 L5.483,50.000 L4.569,49.848 L4.569,41.007 L3.758,41.007 L3.758,49.714 L3.757,49.714 L3.757,41.007 L1.367,41.007 C-0.425,41.007 -0.452,38.998 1.367,38.998 L3.757,38.998 L3.757,27.996 L1.357,27.996 C-0.404,27.996 -0.478,26.003 1.357,26.003 L3.757,26.003 L3.757,16.000 L1.208,16.000 C-0.343,16.000 -0.457,14.007 1.208,14.007 L3.757,14.007 L3.757,8.286 L3.758,8.286 L3.758,14.007 L4.569,14.007 ZM3.758,38.998 L4.569,38.998 L4.569,27.996 L3.758,27.996 L3.758,38.998 ZM3.758,26.003 L4.569,26.003 L4.569,16.000 L3.758,16.000 L3.758,26.003 ZM22.845,31.000 C21.035,29.490 19.190,26.675 19.190,24.000 C19.190,18.321 22.899,16.028 27.063,16.028 C31.652,16.028 34.614,18.124 34.614,24.286 C34.614,26.962 32.061,29.914 31.069,31.000 C31.069,31.000 39.293,34.528 39.293,44.000 L38.379,44.000 C38.379,38.048 34.396,32.000 27.414,32.000 C19.580,32.000 15.534,38.048 15.534,44.000 L14.621,44.000 C14.621,38.343 18.314,32.987 22.845,31.000 ZM33.810,24.000 C33.523,19.644 31.522,17.000 27.414,17.000 C22.957,17.000 20.020,19.663 20.103,24.000 C20.103,29.340 24.596,31.000 27.414,31.000 C32.213,31.000 34.013,27.072 33.810,24.000 ZM34.724,29.000 C36.723,28.240 39.268,25.357 39.293,22.000 C39.349,14.428 31.983,15.000 31.983,15.000 L31.983,14.000 C31.983,14.000 32.547,14.000 32.897,14.000 C36.492,14.000 40.207,16.119 40.207,22.000 C40.207,26.120 38.361,27.490 36.552,29.000 C36.552,29.000 44.776,31.503 44.776,42.000 L43.862,42.000 C43.862,36.591 40.901,30.454 34.724,30.000 C34.845,28.988 34.698,30.069 34.724,29.000 Z" class="cls-1"/>
</svg>
