<svg xmlns="http://www.w3.org/2000/svg" xmlns:xlink="http://www.w3.org/1999/xlink" preserveAspectRatio="xMidYMid" width="24.781" height="25.094" viewBox="0 0 24.781 25.094">
  <defs>
    <style>
      .cls-1 {
        fill: #fff;
        fill-rule: evenodd;
      }
    </style>
  </defs>
  <path d="M12.398,25.103 C5.550,25.103 -0.000,19.484 -0.000,12.552 C-0.000,5.619 5.550,-0.000 12.398,-0.000 C19.245,-0.000 24.796,5.619 24.796,12.552 C24.796,19.484 19.245,25.103 12.398,25.103 ZM8.660,12.067 C9.528,11.181 10.284,10.631 8.733,8.690 C7.182,6.745 6.159,8.246 5.317,9.106 C4.345,10.099 5.284,13.779 8.885,17.408 C12.487,21.034 16.122,21.958 17.092,20.965 C17.933,20.105 19.405,19.056 17.478,17.496 C15.552,15.937 15.017,16.710 14.150,17.596 C13.543,18.218 11.999,16.932 10.665,15.589 C9.329,14.245 8.054,12.687 8.660,12.067 ZM16.976,13.617 C16.818,12.597 16.330,11.531 15.494,10.682 C14.655,9.832 13.605,9.337 12.599,9.176 C12.599,9.176 12.197,9.114 11.914,9.400 C11.624,9.694 11.612,10.201 11.917,10.511 C12.098,10.695 12.353,10.733 12.353,10.733 C12.850,10.827 13.598,10.988 14.395,11.796 C15.191,12.604 15.348,13.364 15.441,13.868 C15.441,13.868 15.481,14.127 15.661,14.309 C15.966,14.619 16.467,14.606 16.757,14.313 C17.038,14.026 16.976,13.617 16.976,13.617 ZM17.475,8.672 C15.200,6.365 12.865,6.152 11.706,6.321 C11.706,6.321 11.400,6.362 11.213,6.552 C10.920,6.849 10.901,7.353 11.215,7.669 C11.493,7.951 11.917,7.880 11.917,7.880 C13.258,7.673 14.915,8.305 16.376,9.786 C17.835,11.268 18.458,12.950 18.256,14.311 C18.256,14.311 18.185,14.743 18.463,15.026 C18.775,15.342 19.271,15.324 19.564,15.028 C19.751,14.836 19.792,14.526 19.792,14.526 C19.959,13.349 19.748,10.980 17.475,8.672 Z" class="cls-1"/>
</svg>
