<svg xmlns="http://www.w3.org/2000/svg" xmlns:xlink="http://www.w3.org/1999/xlink" preserveAspectRatio="xMidYMid" width="25" height="25" viewBox="0 0 25 25">
  <defs>
    <style>
      .cls-1 {
        fill: #ff6f60;
        fill-rule: evenodd;
      }
    </style>
  </defs>
  <path d="M12.497,24.996 C5.592,24.996 -0.006,19.398 -0.006,12.494 C-0.006,5.589 5.592,-0.009 12.497,-0.009 C19.402,-0.009 24.999,5.589 24.999,12.494 C24.999,19.398 19.402,24.996 12.497,24.996 ZM12.497,3.117 C7.327,3.117 3.120,7.324 3.120,12.494 C3.120,17.665 7.327,21.871 12.497,21.871 C17.668,21.871 21.874,17.665 21.874,12.494 C21.874,7.324 17.668,3.117 12.497,3.117 ZM15.623,17.182 C15.223,17.182 14.822,17.030 14.517,16.725 L11.394,13.600 C11.110,13.319 10.935,12.929 10.934,12.499 L10.934,12.498 L10.934,12.494 L10.934,6.242 C10.934,5.379 11.633,4.680 12.497,4.680 C13.361,4.680 14.060,5.379 14.060,6.242 L14.060,11.847 L16.728,14.514 C17.338,15.124 17.338,16.114 16.728,16.725 C16.423,17.030 16.023,17.182 15.623,17.182 Z" class="cls-1"/>
</svg>
