<svg xmlns="http://www.w3.org/2000/svg" xmlns:xlink="http://www.w3.org/1999/xlink" preserveAspectRatio="xMidYMid" width="27.969" height="32" viewBox="0 0 27.969 32">
  <defs>
    <style>
      .cls-1 {
        fill: #ff6f60;
        fill-rule: evenodd;
      }
    </style>
  </defs>
  <path d="M26.450,6.682 C28.039,5.083 28.389,3.421 27.588,2.614 C26.945,1.966 25.753,2.068 24.487,2.962 C24.636,1.388 24.130,0.283 23.245,0.045 C22.153,-0.248 20.898,0.892 20.313,3.082 C20.087,3.924 20.027,4.680 20.098,5.310 C18.144,4.191 15.891,3.569 13.488,3.569 C6.039,3.569 0.000,9.524 0.000,17.878 L0.000,24.016 L0.000,28.099 L0.000,28.508 L0.037,28.508 C0.211,29.667 1.104,30.552 2.187,30.552 L8.309,30.552 C9.800,31.484 11.578,32.000 13.488,32.000 C15.399,32.000 17.176,31.484 18.668,30.552 L24.789,30.552 C25.872,30.552 26.765,29.667 26.940,28.508 L26.976,28.508 L26.976,28.099 L26.976,24.016 L26.976,17.878 C26.976,14.045 25.700,10.721 23.604,8.242 C24.426,8.202 25.450,7.690 26.450,6.682 ZM24.123,4.625 C24.214,4.529 24.309,4.433 24.412,4.337 C25.525,3.290 26.490,3.028 26.814,3.516 C27.138,4.005 26.700,5.060 25.586,6.107 C24.472,7.153 23.508,7.416 23.184,6.927 C23.108,6.813 23.076,6.666 23.082,6.497 C23.489,6.057 23.854,5.426 24.123,4.625 ZM21.345,3.144 C21.792,1.674 22.498,0.959 23.020,1.218 C23.542,1.477 23.684,2.613 23.237,4.083 C23.234,4.089 23.232,4.096 23.230,4.102 C22.670,4.738 22.305,5.372 22.127,5.950 C21.929,6.071 21.735,6.095 21.561,6.009 C21.039,5.750 20.897,4.614 21.345,3.144 ZM18.407,29.408 L18.407,29.432 L18.373,29.432 C17.635,29.929 16.809,30.308 15.920,30.552 L15.839,30.552 C15.834,30.554 15.829,30.555 15.823,30.557 L15.902,30.557 C15.259,30.732 14.584,30.833 13.887,30.863 C13.704,30.872 13.518,30.878 13.329,30.878 C11.451,30.878 9.813,30.378 8.934,29.636 C8.824,29.568 8.711,29.504 8.604,29.432 L8.568,29.432 L8.568,29.407 C6.455,27.968 5.078,25.558 5.078,22.549 L5.078,20.965 L5.078,18.527 L5.078,18.283 L5.101,18.283 C5.210,17.593 5.767,17.065 6.442,17.065 L20.534,17.065 C21.210,17.065 21.767,17.593 21.875,18.283 L21.899,18.283 L21.899,18.527 L21.899,20.965 L21.899,22.549 C21.899,25.559 20.521,27.969 18.407,29.408 ZM25.865,17.810 L25.865,23.436 L25.865,27.179 L25.865,27.554 L25.831,27.554 C25.671,28.617 24.852,29.428 23.858,29.428 L20.116,29.428 C21.900,27.727 23.009,25.270 23.009,22.317 L23.009,20.475 L23.009,17.641 L23.009,17.358 L22.984,17.358 C22.861,16.554 22.230,15.941 21.466,15.941 L5.511,15.941 C4.746,15.941 4.116,16.554 3.993,17.358 L3.967,17.358 L3.967,17.641 L3.967,20.475 L3.967,22.317 C3.967,25.270 5.077,27.727 6.860,29.428 L3.119,29.428 C2.125,29.428 1.305,28.617 1.145,27.554 L1.112,27.554 L1.112,27.179 L1.112,23.436 L1.112,17.810 C1.112,10.152 6.653,4.693 13.488,4.693 C20.324,4.693 25.865,10.152 25.865,17.810 Z" class="cls-1"/>
</svg>
