<svg xmlns="http://www.w3.org/2000/svg" xmlns:xlink="http://www.w3.org/1999/xlink" preserveAspectRatio="xMidYMid" width="30" height="30" viewBox="0 0 30 30">
  <defs>
    <style>
      .cls-1 {
        fill: #55a947;
      }

      .cls-2 {
        fill: #fff;
        fill-rule: evenodd;
      }
    </style>
  </defs>
  <g>
    <rect width="30" height="30" rx="4" ry="4" class="cls-1"/>
    <path d="M19.288,11.740 C19.564,11.740 19.837,11.759 20.108,11.789 C19.371,8.467 15.703,5.999 11.516,5.999 C6.834,5.999 3.000,9.088 3.000,13.010 C3.000,15.275 4.275,17.133 6.407,18.576 L5.556,21.056 L8.533,19.611 C9.598,19.815 10.452,20.025 11.516,20.025 C11.783,20.025 12.048,20.012 12.311,19.992 C12.144,19.441 12.048,18.864 12.048,18.264 C12.048,14.663 15.242,11.740 19.288,11.740 ZM14.649,9.337 C15.376,9.337 15.965,9.908 15.965,10.612 C15.965,11.316 15.376,11.887 14.649,11.887 C13.922,11.887 13.332,11.316 13.332,10.612 C13.332,9.908 13.922,9.337 14.649,9.337 ZM8.691,11.912 C7.964,11.912 7.374,11.342 7.374,10.638 C7.374,9.934 7.964,9.363 8.691,9.363 C9.418,9.363 10.007,9.934 10.007,10.638 C10.007,11.342 9.418,11.912 8.691,11.912 ZM27.000,18.192 C27.000,14.896 23.593,12.209 19.767,12.209 C15.715,12.209 12.524,14.896 12.524,18.192 C12.524,21.494 15.715,24.175 19.767,24.175 C20.615,24.175 21.470,23.967 22.322,23.761 L24.658,25.000 L24.017,22.939 C25.727,21.698 27.000,20.051 27.000,18.192 ZM17.542,17.268 C17.024,17.268 16.604,16.862 16.604,16.361 C16.604,15.859 17.024,15.453 17.542,15.453 C18.059,15.453 18.479,15.859 18.479,16.361 C18.479,16.862 18.059,17.268 17.542,17.268 ZM22.223,17.320 C21.705,17.320 21.286,16.913 21.286,16.412 C21.286,15.911 21.705,15.504 22.223,15.504 C22.741,15.504 23.161,15.911 23.161,16.412 C23.161,16.913 22.741,17.320 22.223,17.320 Z" class="cls-2"/>
  </g>
</svg>
